<svg xmlns="http://www.w3.org/2000/svg" viewBox="0 0 100 100">
  <defs>
    <linearGradient id="bgGradient" x1="0%" y1="0%" x2="100%" y2="100%">
      <stop offset="0%" style="stop-color:#EC4899;stop-opacity:1" />
      <stop offset="50%" style="stop-color:#F43F5E;stop-opacity:1" />
      <stop offset="100%" style="stop-color:#FB923C;stop-opacity:1" />
    </linearGradient>
  </defs>
  
  <!-- Gradient background with rounded corners -->
  <rect x="0" y="0" width="100" height="100" rx="20" fill="url(#bgGradient)" />
  
  <!-- Decorative frame elements -->
  <g fill="none" stroke="white" stroke-width="0.5" opacity="0.3">
    <circle cx="50" cy="50" r="40" />
    <path d="M20 20 L30 20 M70 20 L80 20 M20 80 L30 80 M70 80 L80 80" />
    <path d="M20 20 L20 30 M80 20 L80 30 M20 70 L20 80 M80 70 L80 80" />
  </g>
  
  <!-- Modern serif L&P with wedding elegance -->
  <g fill="white">
    <!-- Letter L - elegant serif style -->
    <g>
      <!-- Main vertical stroke -->
      <rect x="26" y="28" width="6" height="32" />
      <!-- Horizontal stroke -->
      <rect x="26" y="54" width="20" height="6" />
      <!-- Top serif -->
      <path d="M26 28 L32 28 L32 30 L28 30 L28 32 L26 32 Z" />
      <!-- Bottom right serif -->
      <path d="M44 54 L46 54 L46 60 L44 60 L44 58 L42 58 L42 56 L44 56 Z" />
    </g>
    
    <!-- Decorative ampersand/plus -->
    <g opacity="0.9">
      <circle cx="50" cy="45" r="2" />
      <path d="M48 45 L52 45 M50 43 L50 47" stroke-width="0.5" stroke="white" fill="none" />
    </g>
    
    <!-- Letter P - elegant serif style -->
    <g>
      <!-- Main vertical stroke -->
      <rect x="58" y="28" width="6" height="32" />
      <!-- Top curve/bowl -->
      <path d="M58 28 L72 28 C78 28, 82 32, 82 38 C82 44, 78 48, 72 48 L58 48 L58 44 L72 44 C76 44, 78 42, 78 38 C78 34, 76 32, 72 32 L64 32 L64 28" />
      <!-- Top serif -->
      <path d="M58 28 L64 28 L64 30 L60 30 L60 32 L58 32 Z" />
      <!-- Bottom serif -->
      <path d="M58 60 L64 60 L64 58 L62 58 L62 56 L60 56 L60 58 L58 58 Z" />
    </g>
    
    <!-- Heart accent between letters -->
    <path 
      d="M50 50 C48.5 48.5, 47 48.5, 47 50 C47 51, 48 52, 50 54 C52 52, 53 51, 53 50 C53 48.5, 51.5 48.5, 50 50Z" 
      fill="white"
      opacity="0.5"
    />
  </g>
  
  <!-- Ornamental details -->
  <g fill="white" opacity="0.4">
    <!-- Top ornament -->
    <path d="M45 20 C47 18, 50 17, 50 17 C50 17, 53 18, 55 20" fill="none" stroke="white" stroke-width="1" />
    <!-- Bottom ornament -->
    <path d="M45 80 C47 82, 50 83, 50 83 C50 83, 53 82, 55 80" fill="none" stroke="white" stroke-width="1" />
    <!-- Side flourishes -->
    <circle cx="15" cy="50" r="1" />
    <circle cx="85" cy="50" r="1" />
  </g>
  
  <!-- Subtle sparkles -->
  <g fill="white">
    <circle cx="20" cy="20" r="0.8" opacity="0.6"/>
    <circle cx="80" cy="80" r="0.8" opacity="0.6"/>
    <circle cx="80" cy="20" r="0.6" opacity="0.4"/>
    <circle cx="20" cy="80" r="0.6" opacity="0.4"/>
  </g>
</svg>