<svg xmlns="http://www.w3.org/2000/svg" viewBox="0 0 100 100" width="100" height="100">
  <!-- Heart-shaped camera lens logo -->
  <defs>
    <!-- Gradient for the heart -->
    <linearGradient id="heartGradient" x1="0%" y1="0%" x2="100%" y2="100%">
      <stop offset="0%" style="stop-color:#F43F5E;stop-opacity:1" />
      <stop offset="100%" style="stop-color:#EC4899;stop-opacity:1" />
    </linearGradient>
    
    <!-- Gradient for the lens -->
    <radialGradient id="lensGradient">
      <stop offset="0%" style="stop-color:#1F2937;stop-opacity:0.9" />
      <stop offset="100%" style="stop-color:#374151;stop-opacity:1" />
    </radialGradient>
  </defs>
  
  <!-- Main heart shape -->
  <path d="M50 85 C20 60, 5 40, 5 25 C5 15, 12 8, 22 8 C32 8, 40 15, 50 25 C60 15, 68 8, 78 8 C88 8, 95 15, 95 25 C95 40, 80 60, 50 85Z" 
        fill="url(#heartGradient)" 
        opacity="1"/>
  
  <!-- Camera lens aperture blades inside heart -->
  <g transform="translate(50, 40)">
    <!-- Outer lens ring -->
    <circle cx="0" cy="0" r="18" fill="none" stroke="white" stroke-width="2" opacity="0.9"/>
    
    <!-- Aperture blades (6 blades) -->
    <g opacity="0.8">
      <path d="M0,-15 L8,-8 L8,8 L0,15 L-8,8 L-8,-8 Z" fill="none" stroke="white" stroke-width="1.5" stroke-linecap="round"/>
      
      <!-- Inner aperture -->
      <circle cx="0" cy="0" r="6" fill="none" stroke="white" stroke-width="1.5"/>
      
      <!-- Center dot -->
      <circle cx="0" cy="0" r="2" fill="white"/>
    </g>
    
    <!-- Lens highlight -->
    <ellipse cx="-5" cy="-5" rx="4" ry="3" fill="white" opacity="0.4" transform="rotate(-45 -5 -5)"/>
  </g>
  
  <!-- Small sparkles for effect -->
  <circle cx="25" cy="20" r="1.5" fill="white" opacity="0.7">
    <animate attributeName="opacity" values="0.7;1;0.7" dur="2s" repeatCount="indefinite"/>
  </circle>
  <circle cx="75" cy="20" r="1.5" fill="white" opacity="0.7">
    <animate attributeName="opacity" values="0.7;1;0.7" dur="2s" begin="0.5s" repeatCount="indefinite"/>
  </circle>
  <circle cx="50" cy="65" r="1" fill="white" opacity="0.6">
    <animate attributeName="opacity" values="0.6;1;0.6" dur="2s" begin="1s" repeatCount="indefinite"/>
  </circle>
</svg>